<?xml version="1.0" encoding="utf-8"?>
<!DOCTYPE svg PUBLIC "-//W3C//DTD SVG 1.0//EN" "http://www.w3.org/TR/2001/REC-SVG-20010904/DTD/svg10.dtd">
<svg version="1.0" xmlns="http://www.w3.org/2000/svg" width="1716px" height="352px" viewBox="0 0 1716 352" preserveAspectRatio="xMidYMid meet">
 <g fill="#000000">
  <path d="M264.3 309 c-9.6 -3.4 -15.7 -6.6 -27.9 -14.7 l-12.1 -8.1 -8.1 2.4 c-13 3.7 -23.6 4.7 -44.7 4.1 -13.8 -0.4 -21.3 -1.1 -27.6 -2.5 -19.3 -4.5 -35.4 -12.9 -48.1 -25 -16.6 -15.9 -26.1 -34.2 -31.5 -60.8 -2.6 -12.8 -2.6 -54 0 -66.8 8.6 -42.5 31.6 -70.3 68.4 -82.6 12.6 -4.2 25.9 -6 44.3 -6 25 0 41.7 3.4 58.5 12 30.1 15.4 49.1 44.3 54.6 82.7 1.8 13.2 0.6 54.5 -1.9 65.3 -2.9 12.3 -7.5 24 -12.7 32.7 -2.5 4.1 -4.5 7.8 -4.5 8.2 0 1 8.9 5.7 18.1 9.6 4.6 2 9 4.3 9.7 5.2 0.6 0.9 1.2 3.7 1.2 6.1 0 3.7 -1.6 7.5 -8.6 21.1 -4.7 9.1 -9.3 17.2 -10.2 17.9 -2.3 1.8 -10.9 1.4 -16.9 -0.8z m14.7 -23 c3.3 -6.6 6 -12.3 6 -12.7 -0.1 -0.5 -3.5 -2.4 -7.8 -4.3 -4.2 -1.9 -11.4 -5.7 -15.9 -8.4 -10.6 -6.3 -10.7 -7.4 -2.4 -18.9 9.8 -13.7 14.9 -26 18.7 -45.3 2.4 -12.1 2.4 -38.3 0.1 -51.3 -7.3 -39.9 -30.6 -67.9 -65.5 -79 -12.6 -4 -21.2 -5.3 -34.7 -5.4 -62.9 -0.2 -103.6 43.1 -103.6 110.3 0 59.4 29.9 98.8 82.6 108.6 18.9 3.5 44.9 1.3 61.1 -5.2 3.3 -1.3 7.1 -2.4 8.5 -2.4 1.4 0 8.5 4.1 16.9 9.7 12.3 8.2 26.6 16.1 29.2 16.3 0.5 0 3.5 -5.4 6.8 -12z"/>
  <path d="M156.5 248.1 c-19.4 -5.6 -33.4 -20.9 -39.7 -43.7 -2 -7.1 -2.2 -10.4 -2.2 -32.4 -0.1 -20.8 0.2 -25.6 1.8 -32 5.4 -21.8 17.1 -36.1 35.3 -43.3 7.1 -2.7 9.1 -3.1 21.8 -3.5 22.2 -0.7 33.9 3.2 46.7 15.5 14.6 14.2 20.8 35.9 19.5 68.8 -0.8 20.8 -3.9 32.8 -11.6 45.6 -3.4 5.7 -4.2 6.4 -7.4 6.7 -2.8 0.2 -5.1 -0.7 -12 -5.2 -8.3 -5.5 -27.4 -15.3 -28.1 -14.5 -0.2 0.2 -2.4 4.4 -4.8 9.3 l-4.5 8.9 11.9 5.9 11.8 6 0 3.8 c0 3.6 -0.2 3.8 -4.4 4.9 -6.9 1.7 -27 1.3 -34.1 -0.8z m7.7 -36.2 c3.6 -7.5 7.3 -13.9 8.3 -14.2 0.9 -0.4 4.1 -0.7 7 -0.7 6.2 0 17.4 4.3 29.7 11.5 4.3 2.5 8.2 4.5 8.7 4.5 1.7 0 7 -15.5 8.7 -25.2 3.2 -18.1 0.5 -41.3 -6.3 -55.5 -3.7 -7.7 -15 -19.1 -22.4 -22.6 -20.6 -9.6 -44.9 -4.1 -58.5 13.2 -7.6 9.6 -10.8 18.3 -13.2 35 -1.3 9.5 -1.4 13.1 -0.4 22.5 2.5 24.8 10 39.9 24.5 49.6 l6.2 4.2 0.6 -4.4 c0.3 -2.3 3.5 -10.4 7.1 -17.9z"/>
  <path d="M444 297.9 c-13.8 -0.7 -22.1 -2 -30.4 -4.9 -17.8 -6.1 -32.8 -18.7 -40.4 -34 -8.5 -17 -9.2 -26.7 -9.2 -119.1 l0 -74.9 22.4 0 22.5 0 0.3 80.7 0.3 80.8 2.3 6.4 c4.4 12.1 11.6 19.7 23 24.3 5.1 2 7.4 2.3 21.2 2.3 13.8 0 16.1 -0.3 21.2 -2.3 7.4 -3 15 -9.9 18.2 -16.5 1.5 -3.2 2.9 -8.5 3.6 -13.7 0.6 -5.1 1 -38.3 1 -85.2 l0 -76.8 23.1 0 23.1 0 -0.5 79.2 c-0.3 50.5 -0.9 82.4 -1.6 87.8 -3.3 25.1 -12 40.8 -28.6 51.9 -17.5 11.6 -37.8 15.6 -71.5 14z"/>
  <path d="M692.5 297.9 c-14.2 -1 -28.6 -4.7 -40.3 -10.4 -11.6 -5.6 -16.7 -9.1 -25.8 -17.7 -24.2 -23 -35.2 -57.5 -32.3 -101.2 2.1 -32.5 11 -55.3 29.2 -75.1 20.1 -21.9 44.6 -31.6 80.2 -31.6 33.5 0 57.1 8.5 77.8 28.1 14.7 13.8 23.7 29.3 29.2 50.2 6.3 24.1 6.1 58.6 -0.6 82.8 -2.6 9.4 -9.3 23.7 -15 32.1 -5.5 8.2 -16.6 19.3 -24.8 24.8 -14.2 9.7 -33.7 16.5 -50.4 17.6 -4.5 0.3 -10 0.7 -12.2 0.9 -2.2 0.1 -8.9 -0.1 -15 -0.5z m28.3 -40.4 c16.3 -3.9 30.9 -15.9 38.7 -32 5.5 -11.3 7.6 -21.6 8.2 -40.3 1 -29.6 -3.4 -48.1 -14.9 -62.7 -11.6 -14.7 -26.9 -21.5 -48.3 -21.5 -19.5 0 -31.2 4.6 -43.8 17.1 -11.9 11.9 -17.4 25 -19.8 47.9 -1.8 17 0 35.7 4.7 50.1 6.9 21 23 36.7 42.9 41.5 7 1.7 24.7 1.7 32.3 -0.1z"/>
  <path d="M860 179.9 l0 -115.2 60.8 0.6 c59.9 0.6 70 1.1 82.7 4.3 16.5 4.2 29.1 14.5 36.3 29.5 15.6 32.5 4.4 71.1 -24.8 85.2 -6.6 3.2 -16.9 6.5 -25.2 8.2 -1.6 0.3 -2.8 0.9 -2.7 1.3 0 0.4 3.2 2.7 7.1 5.2 8.9 5.6 19.6 16.2 27 26.7 5.6 7.7 43.8 67.9 43.8 68.8 0 0.3 -12.1 0.5 -26.8 0.5 l-26.9 0 -20.8 -31.2 c-32.7 -49.2 -39 -57 -50.2 -62 -4.1 -1.9 -7 -2.3 -20 -2.6 l-15.3 -0.4 0 48.1 0 48.1 -22.5 0 -22.5 0 0 -115.1z m115.3 -18.9 c8.3 -1.2 13.2 -3.6 18 -8.9 8.8 -9.7 8.9 -28.6 0.3 -38.8 -2 -2.2 -5.8 -5.1 -8.8 -6.4 -5.2 -2.4 -5.7 -2.4 -42.5 -2.7 l-37.3 -0.3 0 29.1 0 29 31.8 0 c17.4 0 34.8 -0.5 38.5 -1z"/>
  <path d="M1099 180 l0 -115 39.8 0 c43.4 0 71.1 1.2 81.3 3.4 16.1 3.5 29.1 10.9 41.1 23.4 12.7 13.3 21 30 25.5 51.1 3.4 16.1 4.3 48.2 1.9 65.1 -3.1 20.7 -10.7 39.6 -22.3 54.8 -7.2 9.4 -14.5 15.1 -26.8 21.2 -19.2 9.5 -32.3 10.9 -98.7 11 l-41.8 0 0 -115z m112 73.2 c12.3 -4.1 19.7 -11 24.8 -23.5 5 -11.8 6.3 -20.1 6.9 -42.9 0.6 -23.3 -0.5 -35.8 -4.3 -47.9 -4 -12.7 -12.6 -23.9 -22.1 -28.7 -9.7 -5 -13.3 -5.5 -43.5 -6 l-28.8 -0.4 0 76.2 0 76.2 30.3 -0.4 c27.7 -0.4 30.7 -0.6 36.7 -2.6z"/>
  <path d="M1339 181 l0 -114 23 0 23 0 0 94.5 0 94.5 57.5 0 57.5 0 0 19.5 0 19.5 -80.5 0 -80.5 0 0 -114z"/>
  <path d="M1541 180 l0 -115 84.5 0 84.5 0 0 19.5 0 19.5 -62 0 -62 0 0 25.5 0 25.5 58 0 58 0 0 19.5 0 19.5 -58 0 -58 0 0 31 0 31 64.5 0 64.5 0 0 19.5 0 19.5 -87 0 -87 0 0 -115z"/>
 </g>
 <g fill="#22c55e">
  <path d="M92.5 348 c-18.9 -0.8 -25.2 -2.2 -39 -9 -17.1 -8.4 -29.1 -20.2 -37.9 -37 -6.9 -13.3 -8.6 -20.5 -9.6 -42.5 -1 -19.6 -0.5 -168.9 0.6 -180.5 0.7 -7.4 4.4 -20.1 8.1 -27.5 8.9 -17.7 26.8 -34 45.4 -41.3 15.1 -6 9.9 -5.7 117.9 -5.7 l99.5 0 8 2.3 c26.6 7.7 46.7 24.9 57.2 49.2 7.2 16.8 6.8 9.4 6.8 120 0 111.8 0.5 104.5 -7.6 121.8 -12 26 -36.5 45 -63.1 49.1 -7.6 1.2 -163.6 2.1 -186.3 1.1z m185.7 -41.2 c0.9 -0.7 5.5 -8.9 10.3 -18.1 10.1 -19.5 10.2 -20.6 2.7 -23.9 -7.3 -3.1 -22.5 -10.7 -24.6 -12.3 -1.8 -1.4 -1.7 -1.7 2.1 -7.7 9 -14 12.7 -22.8 16.5 -38.8 2.5 -10.8 3.7 -46.5 1.9 -59.2 -4.5 -31.3 -18.3 -57 -39.3 -73.1 -19.3 -14.7 -42 -21.7 -70.8 -21.7 -59.4 0 -98.1 31.4 -109.7 88.6 -2.5 12.7 -2.5 48.1 0 60.8 8.2 40.4 29.6 67.7 63.1 80.7 15.5 6 23.9 7.3 46.6 7.4 21.5 0 25.4 -0.5 40.3 -5.2 l7.9 -2.4 13.8 9 c13.5 9 18.6 11.6 28.5 15.2 6 2.2 8.6 2.3 10.7 0.7z"/>
  <path d="M166.5 240.9 c-8.8 -1.3 -19.6 -7 -26.6 -14.1 -12.8 -13 -19 -34.7 -17.5 -61.8 1 -20.2 4.8 -32.8 13.1 -43.8 9.7 -12.9 23.3 -19.4 40.5 -19.4 17 -0.1 26.7 3.7 37.5 14.6 12.1 12.2 16.4 24.5 17.2 49.6 0.6 18.1 -1 29.7 -5.7 41.8 -5 12.6 -4.3 12.3 -15.4 5.7 -10.8 -6.5 -26.5 -13.5 -30 -13.5 -1.4 0 -3.2 0.3 -4.1 0.6 -0.9 0.4 -4.8 7.3 -8.7 15.3 -8.2 17.3 -8.2 17.7 1.7 22.1 6.2 2.8 8 4.1 5.3 3.9 -0.7 -0.1 -4 -0.5 -7.3 -1z"/>
 </g>
 <g fill="#ffffff">
  <path d="M264.1 298.8 c-4.1 -1.7 -14.4 -7.7 -22.9 -13.3 l-15.3 -10.2 -5.7 2.3 c-21.4 8.6 -57.7 9.1 -82.2 1.2 -14.7 -4.7 -28.3 -13.2 -38.6 -23.9 -19.8 -20.8 -28.6 -46.7 -28.6 -83.9 0 -19.7 1.8 -31.9 6.9 -47.3 11.6 -35 40.1 -58.8 77.8 -64.8 10.1 -1.6 32.7 -1.6 42.5 -0.1 11.1 1.8 25.8 6.8 34.4 11.6 26.3 15.1 42.2 38.6 48.3 71.7 2.4 13.3 2.4 44.9 0 57.3 -3.9 19.3 -9.4 32.5 -19 45.6 l-5.5 7.5 5.1 3.3 c6.3 4.1 26.5 14.2 28.3 14.2 0.8 0 1.4 0.3 1.4 0.7 0 0.4 -3.5 7.6 -7.7 16 -6.2 12.1 -8.2 15.3 -9.8 15.3 -1.1 -0.1 -5.3 -1.5 -9.4 -3.2z m-76.5 -52.9 c2.4 -0.6 4.4 -1.5 4.4 -1.9 0 -0.5 -5.7 -3.7 -12.7 -7.1 -7.1 -3.5 -12.9 -6.4 -13.1 -6.5 -0.2 -0.1 2.5 -5.8 6 -12.8 5.4 -10.9 6.5 -12.5 8.3 -12 5.1 1.5 23.3 10.8 31.2 15.9 l8.7 5.7 1.8 -2.4 c3.2 -4 9.7 -18.1 11.3 -24.2 4.7 -18.8 4.5 -42.7 -0.6 -61.6 -5.8 -21.3 -21.3 -36.8 -41.6 -41.6 -10.8 -2.5 -26.6 -1.5 -36.6 2.4 -18.1 7 -29.9 21.4 -35.3 43.2 -1.6 6.2 -1.9 11.1 -1.8 29 0 18.9 0.3 22.5 2.2 29.4 6.3 22.8 20.3 38.1 39.7 43.7 7 2 21.5 2.4 28.1 0.8z"/>
 </g>
</svg>